<svg width="285" height="69" viewBox="0 0 285 69" fill="none" xmlns="http://www.w3.org/2000/svg">
<path d="M106.165 22.43V27.225H96.155V32.405H103.645V37.06H96.155V47H90.17V22.43H106.165ZM124.606 42.66H115.436L113.966 47H107.701L116.591 22.43H123.521L132.411 47H126.076L124.606 42.66ZM123.066 38.04L120.021 29.045L117.011 38.04H123.066ZM147.646 47L142.536 37.725H141.101V47H135.116V22.43H145.161C147.098 22.43 148.743 22.7683 150.096 23.445C151.473 24.1217 152.5 25.055 153.176 26.245C153.853 27.4117 154.191 28.7183 154.191 30.165C154.191 31.7983 153.725 33.2567 152.791 34.54C151.881 35.8233 150.528 36.7333 148.731 37.27L154.401 47H147.646ZM141.101 33.49H144.811C145.908 33.49 146.725 33.2217 147.261 32.685C147.821 32.1483 148.101 31.39 148.101 30.41C148.101 29.4767 147.821 28.7417 147.261 28.205C146.725 27.6683 145.908 27.4 144.811 27.4H141.101V33.49ZM173.348 22.43V39.16C173.348 41.75 172.613 43.745 171.143 45.145C169.697 46.545 167.737 47.245 165.263 47.245C162.673 47.245 160.597 46.51 159.033 45.04C157.47 43.57 156.688 41.4817 156.688 38.775H162.638C162.638 39.8017 162.848 40.5833 163.268 41.12C163.688 41.6333 164.295 41.89 165.088 41.89C165.812 41.89 166.372 41.6567 166.768 41.19C167.165 40.7233 167.363 40.0467 167.363 39.16V22.43H173.348ZM193.478 42.66H184.308L182.838 47H176.573L185.463 22.43H192.393L201.283 47H194.948L193.478 42.66ZM191.938 38.04L188.893 29.045L185.883 38.04H191.938ZM225.968 47H219.983L209.973 31.845V47H203.988V22.43H209.973L219.983 37.655V22.43H225.968V47ZM245.602 42.66H236.432L234.962 47H228.697L237.587 22.43H244.517L253.407 47H247.072L245.602 42.66ZM244.062 38.04L241.017 29.045L238.007 38.04H244.062ZM276.059 47L270.949 37.725H269.514V47H263.529V22.43H273.574C275.511 22.43 277.156 22.7683 278.509 23.445C279.886 24.1217 280.913 25.055 281.589 26.245C282.266 27.4117 282.604 28.7183 282.604 30.165C282.604 31.7983 282.138 33.2567 281.204 34.54C280.294 35.8233 278.941 36.7333 277.144 37.27L282.814 47H276.059ZM269.514 33.49H273.224C274.321 33.49 275.138 33.2217 275.674 32.685C276.234 32.1483 276.514 31.39 276.514 30.41C276.514 29.4767 276.234 28.7417 275.674 28.205C275.138 27.6683 274.321 27.4 273.224 27.4H269.514V33.49Z" fill="white"/>
<rect x="32.4916" width="47" height="46" rx="10" transform="rotate(43.8588 32.4916 0)" fill="white"/>
<rect x="47.8726" y="2.86691" width="47" height="46" rx="10" transform="rotate(43.8588 47.8726 2.86691)" fill="#E74B4B"/>
</svg>
