<svg width="66" height="45" viewBox="0 0 66 45" fill="none" xmlns="http://www.w3.org/2000/svg">
<path d="M26.3 22.9966C26.9445 23.5459 27.9892 23.5459 28.6337 22.9966L29.8 22.0025C30.4446 21.4532 30.4446 20.5629 29.8 20.0136L26.1164 16.875L29.799 13.7355C30.4435 13.1862 30.4435 12.2959 29.799 11.7466L28.6327 10.7525C27.9881 10.2032 26.9435 10.2032 26.2989 10.7525L20.2826 15.8801C19.6381 16.4294 19.6381 17.3197 20.2826 17.869L26.3 22.9966ZM36.201 22.0034L37.3673 22.9975C38.0119 23.5468 39.0565 23.5468 39.7011 22.9975L45.7174 17.8699C46.3619 17.3206 46.3619 16.4303 45.7174 15.881L39.7011 10.7534C39.0565 10.2041 38.0119 10.2041 37.3673 10.7534L36.201 11.7475C35.5565 12.2968 35.5565 13.1871 36.201 13.7364L39.8836 16.875L36.201 20.0145C35.5565 20.5638 35.5565 21.4541 36.201 22.0034ZM64.35 36.5625H39.3463C39.27 38.3036 37.8293 39.375 35.97 39.375H29.7C27.7726 39.375 26.2948 37.8396 26.3206 36.5625H1.65C0.7425 36.5625 0 37.1953 0 37.9688V39.375C0 42.4688 2.97 45 6.6 45H59.4C63.03 45 66 42.4688 66 39.375V37.9688C66 37.1953 65.2575 36.5625 64.35 36.5625ZM59.4 4.21875C59.4 1.89844 57.1725 0 54.45 0H11.55C8.8275 0 6.6 1.89844 6.6 4.21875V33.75H59.4V4.21875ZM52.8 28.125H13.2V5.625H52.8V28.125Z" fill="#E74B4B"/>
</svg>
