<svg width="26" height="21" viewBox="0 0 26 21" fill="none" xmlns="http://www.w3.org/2000/svg">
<path d="M22.8111 5.86475C22.827 6.08144 22.827 6.29817 22.827 6.51485C22.827 13.124 17.6716 20.7393 8.24899 20.7393C5.34606 20.7393 2.64939 19.9189 0.380981 18.495C0.793432 18.5414 1.18997 18.5568 1.61829 18.5568C4.01355 18.5568 6.21852 17.7675 7.97931 16.4209C5.72678 16.3744 3.83908 14.935 3.18869 12.9538C3.50598 13.0002 3.82321 13.0311 4.15637 13.0311C4.61638 13.0311 5.07644 12.9692 5.50471 12.8609C3.157 12.3965 1.39617 10.3844 1.39617 7.95431V7.89242C2.07825 8.2639 2.87146 8.49607 3.71213 8.52699C2.33205 7.62924 1.4279 6.09692 1.4279 4.36336C1.4279 3.43469 1.68166 2.58339 2.12585 1.84043C4.64807 4.87415 8.43932 6.85531 12.6905 7.07204C12.6112 6.70057 12.5636 6.31365 12.5636 5.92669C12.5636 3.17155 14.8479 0.927246 17.6874 0.927246C19.1626 0.927246 20.4951 1.53089 21.431 2.50602C22.589 2.28933 23.6994 1.8714 24.6829 1.29872C24.3022 2.45961 23.4932 3.43473 22.4304 4.05382C23.4615 3.94552 24.4608 3.66685 25.3809 3.27994C24.683 4.2705 23.8105 5.15272 22.8111 5.86475Z" fill="white"/>
</svg>
