<svg width="23" height="23" viewBox="0 0 23 23" fill="none" xmlns="http://www.w3.org/2000/svg">
<path d="M11.327 6.15317C8.22156 6.15317 5.71667 8.5973 5.71667 11.6274C5.71667 14.6576 8.22156 17.1017 11.327 17.1017C14.4325 17.1017 16.9374 14.6576 16.9374 11.6274C16.9374 8.5973 14.4325 6.15317 11.327 6.15317ZM11.327 15.1864C9.32019 15.1864 7.67956 13.5904 7.67956 11.6274C7.67956 9.66452 9.31531 8.06845 11.327 8.06845C13.3387 8.06845 14.9745 9.66452 14.9745 11.6274C14.9745 13.5904 13.3339 15.1864 11.327 15.1864ZM18.4755 5.92924C18.4755 6.63914 17.8895 7.2061 17.1669 7.2061C16.4393 7.2061 15.8583 6.63437 15.8583 5.92924C15.8583 5.22412 16.4442 4.65239 17.1669 4.65239C17.8895 4.65239 18.4755 5.22412 18.4755 5.92924ZM22.1913 7.22516C22.1083 5.51474 21.7079 3.99967 20.4237 2.7514C19.1444 1.50314 17.5917 1.11246 15.8387 1.0267C14.0321 0.926647 8.61707 0.926647 6.81042 1.0267C5.06238 1.10769 3.50964 1.49837 2.22546 2.74664C0.941284 3.99491 0.545776 5.50998 0.457886 7.22039C0.355347 8.98321 0.355347 14.2669 0.457886 16.0297C0.540894 17.7401 0.941284 19.2552 2.22546 20.5035C3.50964 21.7517 5.0575 22.1424 6.81042 22.2282C8.61707 22.3282 14.0321 22.3282 15.8387 22.2282C17.5917 22.1472 19.1444 21.7565 20.4237 20.5035C21.703 19.2552 22.1034 17.7401 22.1913 16.0297C22.2938 14.2669 22.2938 8.98798 22.1913 7.22516ZM19.8573 17.9212C19.4764 18.855 18.7391 19.5744 17.7772 19.9508C16.3368 20.5082 12.9188 20.3796 11.327 20.3796C9.73523 20.3796 6.31238 20.5035 4.87683 19.9508C3.9198 19.5792 3.1825 18.8598 2.79675 17.9212C2.22546 16.5157 2.3573 13.1806 2.3573 11.6274C2.3573 10.0743 2.23035 6.73442 2.79675 5.3337C3.17761 4.39988 3.91492 3.68046 4.87683 3.30407C6.31726 2.74664 9.73523 2.87528 11.327 2.87528C12.9188 2.87528 16.3417 2.7514 17.7772 3.30407C18.7343 3.67569 19.4716 4.39511 19.8573 5.3337C20.4286 6.73919 20.2968 10.0743 20.2968 11.6274C20.2968 13.1806 20.4286 16.5205 19.8573 17.9212Z" fill="white"/>
</svg>
