<svg width="42" height="49" viewBox="0 0 42 49" fill="none" xmlns="http://www.w3.org/2000/svg">
<path d="M10.6226 34.7049C9.67215 33.8733 10.1676 34.1077 7.87513 33.5708C6.83499 33.3268 5.92062 32.8579 5.09376 32.2961L0.131465 42.9419C-0.348687 43.9726 0.548179 45.0923 1.8191 45.0502L7.58201 44.8578L11.5457 48.5213C12.4207 49.329 13.9563 49.0773 14.4365 48.0466L20.1294 35.8332C18.9438 36.4113 17.628 36.75 16.2674 36.75C14.1346 36.75 12.1309 36.0237 10.6226 34.7049ZM41.8685 42.9419L36.9062 32.2961C36.0794 32.8588 35.165 33.3268 34.1249 33.5708C31.8204 34.1106 32.3257 33.8752 31.3774 34.7049C29.8691 36.0237 27.8643 36.75 25.7315 36.75C24.3709 36.75 23.0551 36.4103 21.8695 35.8332L27.5624 48.0466C28.0426 49.0773 29.5793 49.329 30.4532 48.5213L34.418 44.8578L40.1809 45.0502C41.4518 45.0923 42.3487 43.9717 41.8685 42.9419ZM28.7655 32.5392C30.4368 31.051 30.6282 31.1793 33.0082 30.6118C34.5274 30.2491 35.7152 29.1916 36.122 27.8383C36.9401 25.1204 36.728 25.4487 38.9603 23.46C40.0726 22.4695 40.5068 21.0254 40.1 19.6722C39.2829 16.9562 39.2818 17.3351 40.1 14.6163C40.5068 13.263 40.0726 11.8189 38.9603 10.8284C36.728 8.83974 36.9401 9.16703 36.122 6.45008C35.7152 5.09686 34.5274 4.03936 33.0082 3.67666C29.9588 2.94837 30.3263 3.13881 28.0918 1.14919C26.9795 0.158679 25.3575 -0.228911 23.8383 0.133796C20.79 0.861126 21.2155 0.862083 18.1617 0.133796C16.6425 -0.228911 15.0205 0.157722 13.9082 1.14919C11.6759 3.13786 12.0434 2.94837 8.99294 3.67666C7.47373 4.03936 6.28593 5.09686 5.87906 6.45008C5.06204 9.16703 5.27313 8.83974 3.04081 10.8284C1.92848 11.8189 1.49317 13.263 1.90113 14.6163C2.71816 17.3303 2.71925 16.9514 1.90113 19.6712C1.49426 21.0244 1.92848 22.4685 3.04081 23.46C5.27313 25.4487 5.06095 25.1204 5.87906 27.8383C6.28593 29.1916 7.47373 30.2491 8.99294 30.6118C11.4407 31.1955 11.6234 31.1037 13.2345 32.5392C14.6815 33.8283 16.9357 34.0589 18.6747 33.0962C19.3701 32.7099 20.1768 32.5047 21.0005 32.5047C21.8243 32.5047 22.631 32.7099 23.3264 33.0962C25.0643 34.0589 27.3185 33.8283 28.7655 32.5392ZM10.6817 16.8404C10.6817 11.7653 15.3016 7.65113 21 7.65113C26.6984 7.65113 31.3183 11.7653 31.3183 16.8404C31.3183 21.9154 26.6984 26.0296 21 26.0296C15.3016 26.0296 10.6817 21.9154 10.6817 16.8404Z" fill="#E74B4B"/>
</svg>
